<svg xmlns="http://www.w3.org/2000/svg" viewBox="0 0 662.1 129.5" xml:space="preserve">
<title>Carahsoft</title>
<g fill="#3155A4">
	<path d="M198.7,35.8c-11.1-1.2-18.2,1.7-25.5,10.8v-9.7H158v90h15.3V75.2c0-7.3,1.9-13.9,6.1-19.1s9.8-6.4,15-6.4
		c3.8,0,7.4,1.2,10.5,3.4l5.6-13.3C207.1,38.1,202.4,36.2,198.7,35.8z"/>
	<path d="M128.8,126.9h15.3V72.6c0-12.8-2.4-22.2-8.2-28.1s-14-9.3-27-9.3c-9.3,0-18.6,2.2-28.9,9l6.2,13.3
		c8.4-6,14.2-8.3,23.2-8.1c12.8,0.3,19.4,6.7,19.4,21.1c-3.9-1.1-7.9-1.7-12-1.7c-12.3,0-22.3,3.6-30.2,9.9s-11.5,14-11.5,23.1
		c-0.2,7.2,2.6,14.1,7.7,19.1c5.1,5.1,11.2,7.2,18.2,7.7c11.3,0.8,19.3-1.9,27.6-9.8V126.9z M128.8,103.2
		c-6.2,7.6-14.1,13.3-22.1,13.3c-11,0-16.7-5.5-16.7-14.8c0-5.6,2.1-10.3,7.2-14.4s13.1-6,21.1-6c3.5,0.1,7.1,0.5,10.5,1.3V103.2z"/>
	<path d="M268.1,126.9h15.3V72.6c0-12.8-2.3-22.2-8.2-28.1c-5.8-5.9-14-9.3-27-9.3c-9.3,0-18.6,2.2-28.9,9l6.2,13.3
		c8.4-6,14.2-8.3,23.2-8.1c12.8,0.3,19.4,6.7,19.4,21.1c-3.9-1.1-7.9-1.7-12-1.7c-12.3,0-22.3,3.6-30.2,9.9s-11.5,14-11.5,23.1
		c-0.2,7.2,2.6,14.1,7.7,19.1c5.1,5.1,11.2,7.2,18.2,7.7c11.3,0.8,19.3-1.9,27.6-9.8L268.1,126.9z M268.1,103.2
		c-6.2,7.6-14.1,13.3-22.1,13.3c-11,0-16.7-5.5-16.7-14.8c0-5.6,2.1-10.3,7.2-14.4s13.1-6,21.1-6c3.5,0.1,7.1,0.5,10.5,1.3
		L268.1,103.2z"/>
	<path d="M337.1,35.3c-4.9-0.1-9.8,0.9-14.3,3c-3.8,1.7-7.3,4.2-10.2,7.2V0h-15.3v126.9h15.3V63.8
		c2.7-4.7,5.2-7.8,9.1-10.6c3.3-2.5,7.3-3.8,11.4-3.8c5.2-0.1,10.3,2,13.9,5.8c3.4,3.3,5.4,9.1,5.4,15.8v56h15.3v-56
		c0-10.8-2.7-19.3-8.1-25.5C354.1,38.8,345.8,35.1,337.1,35.3z"/>
	<path d="M417,76.7l-11.8-5.7c-5.9-2.6-11.4-5.9-11.5-11.3c-0.3-10.1,10.6-11.5,14.9-11.1c6.3,0.6,11.7,3.5,19.2,7.9
		l4.5-13.3c-9.4-5.9-18.1-7.8-24.6-8.1c-8.3-0.4-14.3,1.2-21,6.7c-5.2,4.4-8.2,11-8,17.8c0,2.7,0.4,5.4,1.4,7.9
		c1,2.5,2.4,4.9,4.2,6.9c1.9,2.2,4.1,4.2,6.6,5.8c2.5,1.7,7.4,3.6,14.7,6.9c9.5,4.3,15.2,9.2,15.2,15c0,8.1-6.5,11.8-16.3,11.8
		c-5.4,0-11.7-1.4-20.7-6.5l-5.6,13.7c8.1,4.6,17.2,7.1,26.6,7.2c10.6,0,17-1.9,23.4-6.9c5.6-4.5,8.2-10.7,8.2-18.6
		c0-6.1-1.4-11.1-4.5-15.1C427.7,83,422.7,79.2,417,76.7z"/>
	<path d="M513,47.6c-7.1-8.2-17-12.3-29.8-12.3c-12.1,0-21.9,4.3-29.3,12.8c-7.4,8.5-11.1,19.8-11.2,33.7
		c0,14.3,3.6,25.7,10.7,34.2c7.1,8.5,17,12.7,29.8,12.7c12.5,0,22.3-4.2,29.5-12.6c7.2-8.4,10.8-19.8,10.9-34.3
		C523.6,67.2,520.1,55.8,513,47.6z M501.7,105.7c-4.5,5.9-10.7,8.8-18.5,8.8c-8,0-14.2-3-18.7-8.9c-4.5-5.9-6.7-13.9-6.7-23.9
		c0-9.7,2.3-17.5,7-23.5c4.3-5.8,11.2-9.1,18.4-8.9c8,0,14.2,2.9,18.7,8.6s6.7,13.7,6.6,23.9C508.5,91.9,506.3,99.9,501.7,105.7z"/>
	<path d="M547.3,10.2c-5.6,6.5-7.8,15.2-7.8,26.6h-13.6v14h13.6v76.1h15.2V50.8h18.1v-14h-18.1c-0.3-1.6-0.8-13,4-18.3
		c3.1-3.5,7.6-5.5,12.3-5.5c3.2,0.1,6.4,0.9,9.2,2.3l4.9-12c-4.9-2.1-10.2-3.2-15.5-3.4C561-0.2,552.8,3.6,547.3,10.2z"/>
	<path d="M626,114.6c-5.7,0-9.8-1-12.3-4.2s-3.8-8.5-3.8-16V50.8h24.6v-14h-24.6V12.3l-15.4,6.1v18.5h-10.7v14h10.7
		v49.9c0,8,2,14.6,6.9,19.9s10.9,7.5,18,7.9c7.4,0.4,14.7-0.6,21.7-3.1l-2.3-13.3C634.7,113.7,630.4,114.5,626,114.6z"/>
	<path d="M0,81.9c0,25.8,21.3,46.7,47.6,46.7c7.5-0.1,14.8-1.8,21.6-5.1l-4.3-14.3c-5.2,3.3-11.1,5.1-17.3,5.1
		c-17.8,0.3-32.5-13.9-32.9-31.7C14.4,64.7,28.6,50,46.4,49.7c0.4,0,0.8,0,1.1,0c6.2,0,12.2,1.8,17.4,5.1L69,40.3
		c-6.7-3.3-14-5-21.5-5C21.3,35.3,0,56.1,0,81.9z"/>
	<path d="M660,117.2c-2.8-2.8-7.4-2.8-10.2,0s-2.8,7.4,0,10.2s7.4,2.8,10.2,0c1.4-1.4,2.1-3.2,2.1-5.1
		C662.2,120.4,661.4,118.5,660,117.2z M659.2,126.6c-2.4,2.4-6.2,2.4-8.6,0c-2.4-2.4-2.4-6.2,0-8.6c2.4-2.4,6.2-2.4,8.6,0
		c1.1,1.1,1.8,2.7,1.8,4.3C661,123.9,660.3,125.5,659.2,126.6L659.2,126.6z"/>
	<path d="M657.9,120.5c0-1.1-0.5-2.4-2.9-2.4h-2.6v8.1h1.5v-3.2h1l1.8,3.2h1.7l-2-3.4
		C657.3,122.5,658,121.6,657.9,120.5z M654.8,121.7h-1v-2.3h1c1.4,0,1.6,0.5,1.6,1.1C656.4,120.8,656.4,121.7,654.8,121.7z"/>
</g>
</svg>